<svg width="84" height="84" viewBox="0 0 84 84" fill="none" xmlns="http://www.w3.org/2000/svg">
<path d="M42 82C64.092 82 82 64.092 82 42C82 19.908 64.092 2 42 2C19.908 2 2 19.908 2 42C2 64.092 19.908 82 42 82Z" stroke="white" stroke-width="3" stroke-linecap="round" stroke-linejoin="round"/>
<path d="M50.4672 68.0869V61.2083C50.5589 60.0637 50.4012 58.9192 50.0052 57.8374C49.6065 56.7549 48.9813 55.7714 48.1719 54.9537C55.8462 54.1156 63.9128 51.2615 63.9128 38.1763C63.9058 34.8129 62.5894 31.5864 60.2462 29.1895C61.3614 26.2657 61.2823 23.0163 60.0262 20.151C60.0262 20.151 57.1405 19.3129 50.4672 23.6992C44.8601 22.2107 38.9656 22.2107 33.3586 23.6992C26.6852 19.3129 23.7996 20.1547 23.7996 20.1547C22.5455 23.0178 22.4664 26.2642 23.5796 29.1858C21.2201 31.6005 19.9024 34.8553 19.9129 38.2428C19.9129 51.2357 27.9796 54.0861 35.6539 55.0202C34.8533 55.8307 34.2333 56.8037 33.8352 57.8743C33.44 58.9369 33.2774 60.0729 33.3586 61.2046V68.0869" stroke="white" stroke-width="3" stroke-linecap="round" stroke-linejoin="round"/>
<path d="M32.9128 63.2232C25.6276 65.5348 19.5554 63.2232 15.9128 56.0869" stroke="white" stroke-width="3" stroke-linecap="round" stroke-linejoin="round"/>
</svg>
