<svg width="84" height="84" viewBox="0 0 84 84" fill="none" xmlns="http://www.w3.org/2000/svg">
<path d="M38.247 28.5423L30.6353 19.756C29.7578 18.7435 28.149 18.748 27.1298 19.7695L20.8703 26.0403C19.0073 27.9055 18.474 30.6753 19.5518 32.896C25.9904 46.2272 36.7419 56.9937 50.064 63.451C52.2825 64.5288 55.05 63.9955 56.913 62.1303L63.231 55.801C64.2548 54.7773 64.257 53.1595 63.2355 52.282L54.4155 44.7108C53.493 43.9188 52.0598 44.0223 51.135 44.9493L48.066 48.0228C47.9089 48.1874 47.7021 48.296 47.4773 48.3317C47.2525 48.3675 47.0222 48.3285 46.8218 48.2208C41.8053 45.332 37.644 41.1653 34.7618 36.145C34.6538 35.9442 34.6147 35.7135 34.6505 35.4884C34.6863 35.2632 34.7949 35.056 34.9598 34.8985L38.0198 31.8363C38.9468 30.9048 39.048 29.4648 38.247 28.54V28.5423Z" fill="white"/>
<path d="M42 82C64.092 82 82 64.092 82 42C82 19.908 64.092 2 42 2C19.908 2 2 19.908 2 42C2 64.092 19.908 82 42 82Z" stroke="white" stroke-width="3" stroke-linecap="round" stroke-linejoin="round"/>
</svg>
