<svg width="84" height="84" viewBox="0 0 84 84" fill="none" xmlns="http://www.w3.org/2000/svg">
<path d="M42.0894 2H41.9106C19.8686 2 2 19.9086 2 42C2 64.0914 19.8686 82 41.9106 82H42.0894C64.1314 82 82 64.0914 82 42C82 19.9086 64.1314 2 42.0894 2Z" stroke="white" stroke-width="3" stroke-miterlimit="10"/>
<path d="M60.9827 25.006H60.5516C59.3609 24.9967 58.1978 25.3656 57.2292 26.0599L54.38 28.1677L42.0367 37.3575L29.5883 28.0307L27.0965 26.1653C26.0988 25.4143 24.8852 25.0076 23.6374 25.006H23.0171C22.5026 25.006 21.9932 25.1078 21.518 25.3055C21.0427 25.5031 20.6111 25.7929 20.2478 26.158C19.8845 26.5232 19.5966 26.9566 19.4007 27.4335C19.2047 27.9103 19.1046 28.4213 19.106 28.937V56.106C19.106 56.8719 19.4095 57.6063 19.9497 58.1479C20.49 58.6894 21.2227 58.9936 21.9868 58.9936H29.5883V41.3939L33.0684 44.0075L42.0052 50.6996L50.9735 44.0602L54.38 41.5309V58.9936H62.0131C62.3914 58.9936 62.766 58.919 63.1155 58.7738C63.465 58.6287 63.7826 58.416 64.0501 58.1479C64.3176 57.8797 64.5298 57.5614 64.6746 57.2111C64.8193 56.8607 64.8939 56.4852 64.8939 56.106V28.937C64.8952 28.4213 64.7951 27.9103 64.5992 27.4335C64.4032 26.9566 64.1153 26.5232 63.752 26.158C63.3887 25.7929 62.9571 25.5031 62.4819 25.3055C62.0067 25.1078 61.4972 25.006 60.9827 25.006V25.006Z" fill="white"/>
</svg>
